<svg xmlns="http://www.w3.org/2000/svg" viewBox="0 0 512 512" width="512" height="512" role="img" aria-label="Lexikon">
  <rect width="512" height="512" fill="#F3F1EA"/>
  <g fill="#2F5043">
    <g transform="rotate(0 256 256)">
      <path transform="translate(155.2 82.75) scale(6.3)" d="M16 27.5 C15 24 6 18 6 11 C6 7 9 4.5 12 4.5 C14.2 4.5 15.4 6 16 7.6 C16.6 6 17.8 4.5 20 4.5 C23 4.5 26 7 26 11 C26 18 17 24 16 27.5 Z"/>
    </g>
    <g transform="rotate(90 256 256)">
      <path transform="translate(155.2 82.75) scale(6.3)" d="M16 27.5 C15 24 6 18 6 11 C6 7 9 4.5 12 4.5 C14.2 4.5 15.4 6 16 7.6 C16.6 6 17.8 4.5 20 4.5 C23 4.5 26 7 26 11 C26 18 17 24 16 27.5 Z"/>
    </g>
    <g transform="rotate(180 256 256)">
      <path transform="translate(155.2 82.75) scale(6.3)" d="M16 27.5 C15 24 6 18 6 11 C6 7 9 4.5 12 4.5 C14.2 4.5 15.4 6 16 7.6 C16.6 6 17.8 4.5 20 4.5 C23 4.5 26 7 26 11 C26 18 17 24 16 27.5 Z"/>
    </g>
    <g transform="rotate(270 256 256)">
      <path transform="translate(155.2 82.75) scale(6.3)" d="M16 27.5 C15 24 6 18 6 11 C6 7 9 4.5 12 4.5 C14.2 4.5 15.4 6 16 7.6 C16.6 6 17.8 4.5 20 4.5 C23 4.5 26 7 26 11 C26 18 17 24 16 27.5 Z"/>
    </g>
    <path d="M256 256 C272 300 286 360 300 452 C300 452 292 452 286 450 C272 360 262 304 248 268 Z"/>
  </g>
</svg>
